<svg width="116" height="64" viewBox="0 0 116 64" fill="none" xmlns="http://www.w3.org/2000/svg">
<path d="M1.76136 56V38.5455H7.04545V41.75H7.23864C7.60227 40.6894 8.21591 39.8523 9.07955 39.2386C9.94318 38.625 10.9735 38.3182 12.1705 38.3182C13.3826 38.3182 14.4205 38.6288 15.2841 39.25C16.1477 39.8712 16.697 40.7045 16.9318 41.75H17.1136C17.4394 40.7121 18.0758 39.8826 19.0227 39.2614C19.9697 38.6326 21.0871 38.3182 22.375 38.3182C24.0265 38.3182 25.3674 38.8485 26.3977 39.9091C27.428 40.9621 27.9432 42.4091 27.9432 44.25V56H22.3864V45.5227C22.3864 44.6515 22.1629 43.9886 21.7159 43.5341C21.2689 43.072 20.6894 42.8409 19.9773 42.8409C19.2121 42.8409 18.6098 43.0909 18.1705 43.5909C17.7386 44.0833 17.5227 44.7462 17.5227 45.5795V56H12.1818V45.4659C12.1818 44.6553 11.9621 44.0152 11.5227 43.5455C11.0833 43.0758 10.5038 42.8409 9.78409 42.8409C9.29924 42.8409 8.87121 42.9583 8.5 43.1932C8.12879 43.4205 7.83712 43.7462 7.625 44.1705C7.42045 44.5947 7.31818 45.0947 7.31818 45.6705V56H1.76136ZM34.1591 62.5455C33.4924 62.5455 32.8636 62.4924 32.2727 62.3864C31.6818 62.2879 31.1742 62.1553 30.75 61.9886L31.9773 57.9545C32.5227 58.1364 33.0152 58.2424 33.4545 58.2727C33.9015 58.303 34.2841 58.2311 34.6023 58.0568C34.928 57.8902 35.178 57.5909 35.3523 57.1591L35.5682 56.6364L29.3636 38.5455H35.1818L38.3977 51H38.5795L41.8409 38.5455H47.6932L41.1136 57.6705C40.7955 58.625 40.3447 59.4659 39.7614 60.1932C39.1856 60.928 38.4394 61.5038 37.5227 61.9205C36.6136 62.3371 35.4924 62.5455 34.1591 62.5455ZM53.0852 56L48.5398 38.5455H54.1193L56.4716 49.7273H56.6193L59.142 38.5455H64.5852L67.1761 49.6477H67.3239L69.608 38.5455H75.1875L70.6307 56H64.6875L61.9602 45.8295H61.767L59.0398 56H53.0852ZM82.3381 56.2955C81.2244 56.2955 80.2358 56.1098 79.3722 55.7386C78.5161 55.3598 77.8381 54.7917 77.3381 54.0341C76.8456 53.2689 76.5994 52.3106 76.5994 51.1591C76.5994 50.1894 76.7699 49.3712 77.1108 48.7045C77.4517 48.0379 77.9214 47.4962 78.5199 47.0795C79.1184 46.6629 79.8078 46.3485 80.5881 46.1364C81.3684 45.9167 82.2017 45.7689 83.0881 45.6932C84.0805 45.6023 84.8797 45.5076 85.4858 45.4091C86.0919 45.303 86.5313 45.1553 86.804 44.9659C87.0843 44.7689 87.2244 44.4924 87.2244 44.1364V44.0795C87.2244 43.4962 87.0237 43.0455 86.6222 42.7273C86.2206 42.4091 85.679 42.25 84.9972 42.25C84.2623 42.25 83.6714 42.4091 83.2244 42.7273C82.7775 43.0455 82.4934 43.4848 82.3722 44.0455L77.2472 43.8636C77.3987 42.803 77.7888 41.8561 78.4176 41.0227C79.054 40.1818 79.9252 39.5227 81.0312 39.0455C82.1449 38.5606 83.482 38.3182 85.0426 38.3182C86.1563 38.3182 87.1828 38.4508 88.1222 38.7159C89.0616 38.9735 89.8797 39.3523 90.5767 39.8523C91.2737 40.3447 91.8116 40.9508 92.1903 41.6705C92.5767 42.3902 92.7699 43.2121 92.7699 44.1364V56H87.5426V53.5682H87.4062C87.0956 54.1591 86.6979 54.6591 86.2131 55.0682C85.7358 55.4773 85.1714 55.7841 84.5199 55.9886C83.8759 56.1932 83.1487 56.2955 82.3381 56.2955ZM84.054 52.6591C84.6525 52.6591 85.1903 52.5379 85.6676 52.2955C86.1525 52.053 86.5388 51.7197 86.8267 51.2955C87.1146 50.8636 87.2585 50.3636 87.2585 49.7955V48.1364C87.0994 48.2197 86.9063 48.2955 86.679 48.3636C86.4593 48.4318 86.2169 48.4962 85.9517 48.5568C85.6866 48.6174 85.4138 48.6705 85.1335 48.7159C84.8532 48.7614 84.5843 48.803 84.3267 48.8409C83.804 48.9242 83.357 49.053 82.9858 49.2273C82.6222 49.4015 82.3419 49.6288 82.1449 49.9091C81.9555 50.1818 81.8608 50.5076 81.8608 50.8864C81.8608 51.4621 82.0653 51.9015 82.4744 52.2045C82.8911 52.5076 83.4176 52.6591 84.054 52.6591ZM98.9403 62.5455C98.2737 62.5455 97.6449 62.4924 97.054 62.3864C96.4631 62.2879 95.9555 62.1553 95.5312 61.9886L96.7585 57.9545C97.304 58.1364 97.7964 58.2424 98.2358 58.2727C98.6828 58.303 99.0653 58.2311 99.3835 58.0568C99.7093 57.8902 99.9593 57.5909 100.134 57.1591L100.349 56.6364L94.1449 38.5455H99.9631L103.179 51H103.361L106.622 38.5455H112.474L105.895 57.6705C105.577 58.625 105.126 59.4659 104.543 60.1932C103.967 60.928 103.221 61.5038 102.304 61.9205C101.395 62.3371 100.274 62.5455 98.9403 62.5455Z" fill="white"/>
<rect x="0.5" y="0.5" width="15" height="15" rx="3.5" fill="#18181B" stroke="#27272A"/>
<rect x="20.5" y="0.5" width="15" height="15" rx="3.5" fill="#0E4429" stroke="#006D32"/>
<rect x="40.5" y="0.5" width="15" height="15" rx="3.5" fill="#006D32" stroke="#34A44B"/>
<rect x="60.5" y="0.5" width="15" height="15" rx="3.5" fill="#26A641" stroke="#4DFC6B"/>
<rect x="80.5" y="0.5" width="15" height="15" rx="3.5" fill="#4DFC6B" stroke="#A0F5AE"/>
<rect x="100.5" y="0.5" width="15" height="15" rx="3.5" fill="#BFFDB5" stroke="#BFFDB5"/>
</svg>
